# xmcd
#
# Track frame offsets:
#	150
#	40417
#	51222
#	65380
#	73975
#	85197
#	96560
#	108232
#	121104
#	134275
#	142265
#	156642
#	236247
#	242337
#	256847
#	317615
#
# Disc length: 4616
#
# Revision: 1
# Processed by: cddbd v1.5.1PL0 Copyright (c) Steve Scherf et al.
# Submitted via: CDex 1.50
# Normalized: r0:TDELIM( - )
#
DISCID=ec120610
DTITLE=Gershwin and Friends - The Great Gershwin Album
DYEAR=1900
DGENRE=Blues
TTITLE0=George Gershwin - Rhapsody in blue
TTITLE1=Fred Astaire - Fascinatin' Rhythm
TTITLE2=Fats Waller - I got Rhythm
TTITLE3=Al Jolson - Swanee
TTITLE4=Louis Armstrong - Love walked in
TTITLE5=Paul Robeson - It ain't necessarily so
TTITLE6=Lily Pons - Summertime
TTITLE7=Mildred Bailey - Summertime
TTITLE8=Billie Holiday - Porgy
TTITLE9=Frank Sinatra - Somebody loves me
TTITLE10=Ella Fitzgerald - Someone to watch over me
TTITLE11=Leonard Bernstein - An American in Paris
TTITLE12=Oscar Levant - Piano Prelude No.1 Allegro
TTITLE13=Oscar Levant - Piano Prelude No.2 Andante
TTITLE14=Oscar Levant - Second Rhapsody
TTITLE15=Oscar Levant - Piano Concerto in F 3rd mov.
EXTD=
EXTT0=
EXTT1=
EXTT2=
EXTT3=
EXTT4=
EXTT5=
EXTT6=
EXTT7=
EXTT8=
EXTT9=
EXTT10=
EXTT11=
EXTT12=
EXTT13=
EXTT14=
EXTT15=
PLAYORDER=
